<svg id="wave" style="transform:rotate(0deg); transition: 0.3s" viewBox="0 0 1440 450" version="1.1" xmlns="http://www.w3.org/2000/svg"><defs><linearGradient id="sw-gradient-0" x1="0" x2="0" y1="1" y2="0"><stop stop-color="rgba(251, 146, 60, 1)" offset="0%"></stop><stop stop-color="rgba(252, 166, 31, 1)" offset="100%"></stop></linearGradient></defs><path style="transform:translate(0, 0px); opacity:1" fill="url(#sw-gradient-0)" d="M0,315L120,277.5C240,240,480,165,720,157.5C960,150,1200,210,1440,262.5C1680,315,1920,360,2160,352.5C2400,345,2640,285,2880,225C3120,165,3360,105,3600,120C3840,135,4080,225,4320,285C4560,345,4800,375,5040,330C5280,285,5520,165,5760,105C6000,45,6240,45,6480,45C6720,45,6960,45,7200,52.5C7440,60,7680,75,7920,127.5C8160,180,8400,270,8640,315C8880,360,9120,360,9360,300C9600,240,9840,120,10080,112.5C10320,105,10560,210,10800,225C11040,240,11280,165,11520,135C11760,105,12000,120,12240,120C12480,120,12720,105,12960,82.5C13200,60,13440,30,13680,45C13920,60,14160,120,14400,120C14640,120,14880,60,15120,37.5C15360,15,15600,30,15840,90C16080,150,16320,255,16560,292.5C16800,330,17040,300,17160,285L17280,270L17280,450L17160,450C17040,450,16800,450,16560,450C16320,450,16080,450,15840,450C15600,450,15360,450,15120,450C14880,450,14640,450,14400,450C14160,450,13920,450,13680,450C13440,450,13200,450,12960,450C12720,450,12480,450,12240,450C12000,450,11760,450,11520,450C11280,450,11040,450,10800,450C10560,450,10320,450,10080,450C9840,450,9600,450,9360,450C9120,450,8880,450,8640,450C8400,450,8160,450,7920,450C7680,450,7440,450,7200,450C6960,450,6720,450,6480,450C6240,450,6000,450,5760,450C5520,450,5280,450,5040,450C4800,450,4560,450,4320,450C4080,450,3840,450,3600,450C3360,450,3120,450,2880,450C2640,450,2400,450,2160,450C1920,450,1680,450,1440,450C1200,450,960,450,720,450C480,450,240,450,120,450L0,450Z"></path><defs><linearGradient id="sw-gradient-1" x1="0" x2="0" y1="1" y2="0"><stop stop-color="rgba(251, 146, 60, 1)" offset="0%"></stop><stop stop-color="rgba(234, 88, 12, 1)" offset="100%"></stop></linearGradient></defs><path style="transform:translate(0, 50px); opacity:0.9" fill="url(#sw-gradient-1)" d="M0,135L120,180C240,225,480,315,720,300C960,285,1200,165,1440,165C1680,165,1920,285,2160,277.5C2400,270,2640,135,2880,97.5C3120,60,3360,120,3600,127.5C3840,135,4080,90,4320,67.5C4560,45,4800,45,5040,37.5C5280,30,5520,15,5760,75C6000,135,6240,270,6480,315C6720,360,6960,315,7200,315C7440,315,7680,360,7920,315C8160,270,8400,135,8640,67.5C8880,0,9120,0,9360,0C9600,0,9840,0,10080,0C10320,0,10560,0,10800,15C11040,30,11280,60,11520,90C11760,120,12000,150,12240,135C12480,120,12720,60,12960,52.5C13200,45,13440,90,13680,150C13920,210,14160,285,14400,300C14640,315,14880,270,15120,210C15360,150,15600,75,15840,75C16080,75,16320,150,16560,150C16800,150,17040,75,17160,37.5L17280,0L17280,450L17160,450C17040,450,16800,450,16560,450C16320,450,16080,450,15840,450C15600,450,15360,450,15120,450C14880,450,14640,450,14400,450C14160,450,13920,450,13680,450C13440,450,13200,450,12960,450C12720,450,12480,450,12240,450C12000,450,11760,450,11520,450C11280,450,11040,450,10800,450C10560,450,10320,450,10080,450C9840,450,9600,450,9360,450C9120,450,8880,450,8640,450C8400,450,8160,450,7920,450C7680,450,7440,450,7200,450C6960,450,6720,450,6480,450C6240,450,6000,450,5760,450C5520,450,5280,450,5040,450C4800,450,4560,450,4320,450C4080,450,3840,450,3600,450C3360,450,3120,450,2880,450C2640,450,2400,450,2160,450C1920,450,1680,450,1440,450C1200,450,960,450,720,450C480,450,240,450,120,450L0,450Z"></path></svg>