<?xml version="1.0" standalone="no"?>
<svg xmlns:xlink="http://www.w3.org/1999/xlink" id="wave" style="transform:rotate(0deg); transition: 0.3s" viewBox="0 0 1440 490" version="1.1" xmlns="http://www.w3.org/2000/svg"><defs><linearGradient id="sw-gradient-0" x1="0" x2="0" y1="1" y2="0"><stop stop-color="rgba(243, 106, 62, 1)" offset="0%"/><stop stop-color="rgba(255, 179, 11, 1)" offset="100%"/></linearGradient></defs><path style="transform:translate(0, 0px); opacity:1" fill="url(#sw-gradient-0)" d="M0,392L80,359.3C160,327,320,261,480,236.8C640,212,800,229,960,261.3C1120,294,1280,343,1440,326.7C1600,310,1760,229,1920,187.8C2080,147,2240,147,2400,196C2560,245,2720,343,2880,326.7C3040,310,3200,180,3360,122.5C3520,65,3680,82,3840,138.8C4000,196,4160,294,4320,351.2C4480,408,4640,425,4800,367.5C4960,310,5120,180,5280,179.7C5440,180,5600,310,5760,351.2C5920,392,6080,343,6240,294C6400,245,6560,196,6720,187.8C6880,180,7040,212,7200,245C7360,278,7520,310,7680,326.7C7840,343,8000,343,8160,351.2C8320,359,8480,376,8640,334.8C8800,294,8960,196,9120,155.2C9280,114,9440,131,9600,155.2C9760,180,9920,212,10080,245C10240,278,10400,310,10560,326.7C10720,343,10880,343,11040,302.2C11200,261,11360,180,11440,138.8L11520,98L11520,490L11440,490C11360,490,11200,490,11040,490C10880,490,10720,490,10560,490C10400,490,10240,490,10080,490C9920,490,9760,490,9600,490C9440,490,9280,490,9120,490C8960,490,8800,490,8640,490C8480,490,8320,490,8160,490C8000,490,7840,490,7680,490C7520,490,7360,490,7200,490C7040,490,6880,490,6720,490C6560,490,6400,490,6240,490C6080,490,5920,490,5760,490C5600,490,5440,490,5280,490C5120,490,4960,490,4800,490C4640,490,4480,490,4320,490C4160,490,4000,490,3840,490C3680,490,3520,490,3360,490C3200,490,3040,490,2880,490C2720,490,2560,490,2400,490C2240,490,2080,490,1920,490C1760,490,1600,490,1440,490C1280,490,1120,490,960,490C800,490,640,490,480,490C320,490,160,490,80,490L0,490Z"/><defs><linearGradient id="sw-gradient-1" x1="0" x2="0" y1="1" y2="0"><stop stop-color="rgba(243, 106, 62, 1)" offset="0%"/><stop stop-color="rgba(255, 179, 11, 1)" offset="100%"/></linearGradient></defs><path style="transform:translate(0, 50px); opacity:0.9" fill="url(#sw-gradient-1)" d="M0,196L80,212.3C160,229,320,261,480,285.8C640,310,800,327,960,318.5C1120,310,1280,278,1440,220.5C1600,163,1760,82,1920,98C2080,114,2240,229,2400,253.2C2560,278,2720,212,2880,155.2C3040,98,3200,49,3360,89.8C3520,131,3680,261,3840,326.7C4000,392,4160,392,4320,367.5C4480,343,4640,294,4800,228.7C4960,163,5120,82,5280,40.8C5440,0,5600,0,5760,49C5920,98,6080,196,6240,245C6400,294,6560,294,6720,285.8C6880,278,7040,261,7200,269.5C7360,278,7520,310,7680,277.7C7840,245,8000,147,8160,155.2C8320,163,8480,278,8640,318.5C8800,359,8960,327,9120,285.8C9280,245,9440,196,9600,187.8C9760,180,9920,212,10080,253.2C10240,294,10400,343,10560,334.8C10720,327,10880,261,11040,245C11200,229,11360,261,11440,277.7L11520,294L11520,490L11440,490C11360,490,11200,490,11040,490C10880,490,10720,490,10560,490C10400,490,10240,490,10080,490C9920,490,9760,490,9600,490C9440,490,9280,490,9120,490C8960,490,8800,490,8640,490C8480,490,8320,490,8160,490C8000,490,7840,490,7680,490C7520,490,7360,490,7200,490C7040,490,6880,490,6720,490C6560,490,6400,490,6240,490C6080,490,5920,490,5760,490C5600,490,5440,490,5280,490C5120,490,4960,490,4800,490C4640,490,4480,490,4320,490C4160,490,4000,490,3840,490C3680,490,3520,490,3360,490C3200,490,3040,490,2880,490C2720,490,2560,490,2400,490C2240,490,2080,490,1920,490C1760,490,1600,490,1440,490C1280,490,1120,490,960,490C800,490,640,490,480,490C320,490,160,490,80,490L0,490Z"/></svg>